<svg width="27" height="18" viewBox="0 0 27 18" fill="none" xmlns="http://www.w3.org/2000/svg">
<path d="M21.66 2.92115C21.2582 2.58378 20.8225 2.28888 20.36 2.04114C19.2323 1.40621 18.0385 0.896494 16.8 0.521123C16.68 0.521123 16.45 0.521121 16.48 0.331121C16.5055 0.242239 16.5617 0.165304 16.6386 0.114019C16.7155 0.0627336 16.8082 0.0404666 16.9 0.0511525C17.3683 0.0444299 17.8355 0.0981811 18.29 0.211126C19.7321 0.513783 21.0701 1.18786 22.1716 2.16657C23.2731 3.14528 24.0998 4.3947 24.57 5.79114C25.3042 7.75128 25.8174 9.78721 26.1 11.8611C26.3015 12.8298 26.2074 13.8366 25.83 14.7512C25.2944 15.7442 24.4222 16.5137 23.37 16.9211C22.1546 17.504 20.8278 17.8178 19.48 17.8411C19.4107 17.8488 19.3407 17.8391 19.2761 17.8129C19.2115 17.7867 19.1544 17.7449 19.11 17.6912C18.75 17.2312 18.38 16.7712 18.01 16.3212C17.83 16.1112 17.85 16.0212 18.12 15.9412C19.1694 15.6184 20.1447 15.0917 20.99 14.3911C21.2214 14.2126 21.4209 13.9963 21.58 13.7512C21.21 13.9512 20.85 14.1611 20.48 14.3511C18.8159 15.2457 16.997 15.8158 15.12 16.0311C12.6915 16.2408 10.246 15.941 7.94003 15.1511C6.79813 14.8031 5.68206 14.3754 4.60004 13.8712H4.47003C4.95901 14.4504 5.54424 14.9409 6.20001 15.3212C6.73541 15.6299 7.30188 15.8813 7.89002 16.0712C8.11002 16.1412 8.17003 16.2211 8.00003 16.4211C7.61003 16.8711 7.24003 17.3412 6.87003 17.8112C6.83285 17.8641 6.78343 17.9072 6.72595 17.9368C6.66848 17.9664 6.60469 17.9816 6.54004 17.9811C4.56872 18.0026 2.6555 17.314 1.15003 16.0411C0.786929 15.7232 0.496347 15.3311 0.297944 14.8911C0.0995409 14.4512 -0.00204862 13.9738 3.1304e-05 13.4912C0.0182578 12.1968 0.182623 10.9086 0.490022 9.65113C0.787213 8.05354 1.27051 6.49631 1.93002 5.01117C2.51749 3.63546 3.46624 2.44429 4.67572 1.56403C5.8852 0.68377 7.31033 0.147225 8.80002 0.0111744C8.98973 -0.00372481 9.18032 -0.00372481 9.37003 0.0111744C9.52003 0.0111744 9.67001 0.0811451 9.67001 0.231145C9.67001 0.381145 9.51004 0.34116 9.41004 0.37116C7.64222 0.790876 5.96955 1.54064 4.48001 2.58112C4.38665 2.64986 4.29965 2.72688 4.22003 2.81116C6.95719 1.54946 9.93837 0.905251 12.9523 0.92426C15.9662 0.94327 18.939 1.62502 21.66 2.92115V2.92115ZM11.17 10.2911C11.1782 9.6773 10.9448 9.08482 10.5201 8.64148C10.0955 8.19814 9.51365 7.93946 8.90003 7.92115C8.28984 7.94443 7.71243 8.20329 7.28912 8.64338C6.86582 9.08346 6.62959 9.67051 6.63004 10.2811C6.6366 10.8889 6.87353 11.4716 7.293 11.9115C7.71247 12.3514 8.28322 12.6157 8.89002 12.6511C9.50981 12.6328 10.0973 12.3703 10.5243 11.9207C10.9514 11.4712 11.1835 10.8711 11.17 10.2512V10.2911ZM14.87 10.2412C14.8564 10.8587 15.0854 11.457 15.508 11.9076C15.9305 12.3582 16.5129 12.6251 17.13 12.6511C17.7326 12.6258 18.3028 12.3718 18.7245 11.9407C19.1463 11.5097 19.3878 10.9341 19.4 10.3311C19.4088 9.71827 19.1808 9.1257 18.7635 8.67676C18.3463 8.22782 17.7719 7.95714 17.16 7.92115C16.5584 7.93381 15.9847 8.17776 15.5583 8.60236C15.1318 9.02696 14.8853 9.59958 14.87 10.2012V10.2412Z" fill="white"/>
</svg>
