<svg width="22" height="22" viewBox="0 0 22 22" fill="none" xmlns="http://www.w3.org/2000/svg">
<path d="M9.73596 0H11.736L12.046 0.0599976C14.0679 0.298813 15.9793 1.11116 17.5546 2.40112C19.1298 3.69109 20.3031 5.40484 20.9359 7.34003C21.1821 8.11969 21.3594 8.91943 21.466 9.73004V11.73C21.466 11.86 21.416 11.98 21.396 12.11C21.1106 14.3629 20.1119 16.4654 18.546 18.11C17.5101 19.2093 16.254 20.0778 14.8597 20.6586C13.4654 21.2395 11.9643 21.5197 10.4543 21.481C8.94436 21.4423 7.45954 21.0856 6.09683 20.4341C4.73412 19.7826 3.52416 18.8509 2.54596 17.7C1.42642 16.3769 0.643066 14.803 0.26254 13.1121C-0.117985 11.4212 -0.0844252 9.66336 0.36038 7.98822C0.805185 6.31308 1.64805 4.77023 2.81729 3.49084C3.98652 2.21146 5.44752 1.23343 7.07596 0.640015C7.94231 0.349685 8.83236 0.135524 9.73596 0ZM10.796 16.17H13.586C13.8315 16.1771 14.0758 16.1327 14.3031 16.0397C14.5304 15.9467 14.7358 15.8071 14.9059 15.63C15.2424 15.2903 15.5317 14.9068 15.766 14.49C16.1207 13.7284 16.7286 13.1135 17.486 12.75V12.75C17.5825 12.6561 17.6498 12.5363 17.68 12.4051C17.7101 12.2738 17.7018 12.1366 17.6559 12.01C17.5259 11.77 17.3359 11.93 17.1859 12.01C16.4259 12.22 15.6759 12.46 14.9059 12.66C14.4981 12.7478 14.1298 12.9653 13.856 13.28C13.6875 13.484 13.4722 13.6442 13.2284 13.7469C12.9846 13.8496 12.7196 13.8919 12.456 13.87C11.576 13.87 11.586 13.87 11.606 12.98C11.606 12.71 11.726 12.55 11.986 12.6C12.2309 12.6297 12.4793 12.5878 12.701 12.4796C12.9228 12.3714 13.1086 12.2013 13.236 11.99C13.436 11.73 13.6559 11.47 13.8459 11.2C14.1529 10.8041 14.3277 10.3217 14.3457 9.82111C14.3636 9.32047 14.2238 8.82689 13.946 8.41003C13.3896 7.53215 12.678 6.76292 11.8459 6.14001C11.7711 6.09461 11.7102 6.02964 11.6696 5.95209C11.6291 5.87454 11.6106 5.78735 11.616 5.70001C11.6311 5.4369 11.6311 5.17315 11.616 4.91003C11.6057 4.76946 11.5419 4.63818 11.4377 4.54327C11.3335 4.44837 11.1969 4.39709 11.056 4.40002C10.9837 4.3987 10.9119 4.41163 10.8447 4.43805C10.7775 4.46447 10.7161 4.50387 10.6641 4.55402C10.6121 4.60416 10.5705 4.66405 10.5416 4.73029C10.5128 4.79652 10.4973 4.86777 10.496 4.94C10.496 5.07 10.496 5.20002 10.496 5.33002C10.496 5.46002 10.4059 5.69999 10.1259 5.60999C9.84594 5.51999 9.48594 5.43004 9.12594 5.35004C9.05594 5.35004 8.95596 5.27004 8.89596 5.35004C8.83596 5.43004 8.89595 5.52999 8.94595 5.60999C9.38894 6.45497 9.72486 7.35193 9.94595 8.28003C10.1053 8.84246 10.1394 9.43296 10.046 10.01C9.87775 10.6823 9.59715 11.3213 9.21597 11.9C9.10597 12.1 8.80594 12.3 8.93594 12.51C9.06594 12.72 9.38596 12.59 9.61596 12.59C10.496 12.59 10.546 12.65 10.456 13.53C10.4594 13.5721 10.4534 13.6143 10.4382 13.6537C10.423 13.693 10.3992 13.7284 10.3684 13.7573C10.3376 13.7861 10.3007 13.8077 10.2605 13.8203C10.2202 13.8328 10.1777 13.8362 10.136 13.83C9.70595 13.83 9.27595 13.83 8.84595 13.83C8.57352 13.8284 8.31159 13.7249 8.11169 13.5399C7.9118 13.3548 7.78845 13.1015 7.76596 12.83C7.76522 12.7768 7.75302 12.7244 7.73016 12.6763C7.7073 12.6282 7.67433 12.5856 7.63351 12.5514C7.59269 12.5172 7.54497 12.4923 7.49362 12.4782C7.44227 12.4642 7.3885 12.4614 7.33597 12.47H4.90594C4.58594 12.47 4.50596 12.59 4.51596 12.9C4.57523 13.7727 4.95728 14.592 5.58767 15.1984C6.21807 15.8047 7.05165 16.1547 7.92596 16.18L10.796 16.17ZM6.79596 11.17H7.97595C8.04692 11.1814 8.11968 11.1736 8.18655 11.1472C8.25342 11.1208 8.31194 11.0769 8.35596 11.02C8.71253 10.5416 8.9305 9.97414 8.98596 9.38C8.94883 8.49524 8.73101 7.62745 8.34595 6.83002C8.25595 6.62002 8.13596 6.63002 8.01596 6.83002L7.62594 7.42999L5.47595 10.81C5.27595 11.12 5.30594 11.19 5.68594 11.19L6.79596 11.17Z" fill="white"/>
</svg>
