<svg width="22" height="19" viewBox="0 0 22 19" fill="none" xmlns="http://www.w3.org/2000/svg">
<path d="M0 15.8833C2.33018 16.1443 4.6716 15.4999 6.54001 14.0833L5.91 13.9832C5.15657 13.8465 4.45023 13.5205 3.85727 13.036C3.26431 12.5515 2.80415 11.9243 2.51999 11.2133C2.38999 10.9133 2.43 10.8633 2.78 10.9133C3.26535 10.9702 3.75706 10.9362 4.23001 10.8132C3.44228 10.5841 2.72623 10.1572 2.14999 9.57326C1.36726 8.76204 0.899254 7.69841 0.829987 6.57326C0.829987 6.36326 0.899987 6.32329 1.07999 6.41329C1.36742 6.56298 1.67342 6.6739 1.98999 6.74324C2.22999 6.80324 2.48 6.83326 2.81 6.88326C2.31501 6.48996 1.88915 6.01677 1.54999 5.48323C1.12765 4.82736 0.889912 4.06982 0.861755 3.29024C0.833599 2.51066 1.01606 1.73787 1.38998 1.05324C1.51998 0.793239 1.60001 0.913239 1.73001 1.05324C3.39409 3.02624 5.6194 4.44585 8.10999 5.12325C8.86418 5.32038 9.63354 5.4542 10.41 5.52327C10.74 5.52327 10.75 5.52328 10.71 5.22328C10.5314 4.04258 10.8263 2.83909 11.5304 1.87465C12.2345 0.910209 13.291 0.262807 14.47 0.0732583C15.1624 -0.0548524 15.8755 -0.0144996 16.549 0.190873C17.2226 0.396246 17.8369 0.760604 18.34 1.25325C18.4003 1.31691 18.4775 1.362 18.5625 1.38326C18.6475 1.40452 18.7369 1.40106 18.82 1.37325C19.6189 1.16769 20.3908 0.868963 21.12 0.483231C21.19 0.483231 21.28 0.363285 21.34 0.413285C21.4 0.463285 21.34 0.573275 21.34 0.653275C21.0622 1.398 20.5847 2.05183 19.96 2.54323C19.8727 2.60821 19.7923 2.68196 19.72 2.76326C20.4952 2.66814 21.2548 2.47318 21.98 2.18324C21.8062 2.55205 21.5731 2.88986 21.29 3.18324C20.9428 3.59589 20.5503 3.96821 20.12 4.29323C20.0049 4.36475 19.9126 4.46777 19.8542 4.59004C19.7957 4.71231 19.7734 4.84872 19.79 4.98323C19.8061 6.2002 19.6444 7.41304 19.31 8.58327C18.6886 10.8642 17.466 12.9364 15.77 14.5833C13.9512 16.3586 11.6157 17.5106 9.10001 17.8732C6.70723 18.2635 4.25311 17.9831 2.01001 17.0632C1.39758 16.8096 0.805776 16.5087 0.23999 16.1633C0.18248 16.1362 0.131364 16.0972 0.0899963 16.049C0.0486291 16.0007 0.0179593 15.9442 0 15.8833V15.8833Z" fill="white"/>
</svg>
