<svg xmlns="http://www.w3.org/2000/svg" viewBox="0 0 26.22 18"><defs><style>.cls-1{fill:#fff;}</style></defs><g id="Layer_2" data-name="Layer 2"><g id="Layer_1-2" data-name="Layer 1"><path class="cls-1" d="M21.68,2.91A9,9,0,0,0,20.38,2,18,18,0,0,0,16.82.52c-.12,0-.35,0-.32-.2s.21-.27.42-.28a5.45,5.45,0,0,1,1.39.17,8.44,8.44,0,0,1,6.28,5.57,28.28,28.28,0,0,1,1.53,6.07,4.88,4.88,0,0,1-.26,2.9A4.82,4.82,0,0,1,23.37,17a9.18,9.18,0,0,1-3.89.92.41.41,0,0,1-.37-.15c-.36-.46-.73-.92-1.1-1.37-.18-.2-.16-.29.11-.38A8.2,8.2,0,0,0,21,14.45a2.6,2.6,0,0,0,.58-.65l-1.1.61a14.9,14.9,0,0,1-5.36,1.67A17.27,17.27,0,0,1,8,15.2,23.82,23.82,0,0,1,4.6,13.92l-.13,0A6.54,6.54,0,0,0,6.2,15.34a8.22,8.22,0,0,0,1.69.75c.22.08.28.15.11.35-.39.46-.76.93-1.13,1.39a.4.4,0,0,1-.33.17,8.1,8.1,0,0,1-5.39-1.94A3.35,3.35,0,0,1,0,13.52,17.21,17.21,0,0,1,.49,9.67,20.33,20.33,0,0,1,1.94,5,8.28,8.28,0,0,1,8.81,0a5.09,5.09,0,0,1,.56,0,.28.28,0,0,1,.31.23c0,.12-.17.11-.27.13A14.45,14.45,0,0,0,4.48,2.58a1.38,1.38,0,0,0-.26.23A20.55,20.55,0,0,1,21.68,2.91ZM11.19,10.28A2.32,2.32,0,0,0,8.92,7.92a2.35,2.35,0,0,0-2.27,2.35,2.38,2.38,0,0,0,2.26,2.37A2.35,2.35,0,0,0,11.19,10.28Zm3.7,0a2.35,2.35,0,0,0,2.26,2.41,2.36,2.36,0,0,0,0-4.72A2.33,2.33,0,0,0,14.89,10.23Z"/></g></g></svg>