<svg xmlns="http://www.w3.org/2000/svg" viewBox="0 0 19.59 19.59"><defs><style>.cls-1{fill:#fff;}</style></defs><g id="Layer_2" data-name="Layer 2"><g id="Layer_1-2" data-name="Layer 1"><path class="cls-1" d="M8.89,0h1.82L11,.06a9.72,9.72,0,0,1,8.1,6.63,13.48,13.48,0,0,1,.49,2.18V10.7c0,.12-.05.24-.07.35a9.6,9.6,0,0,1-2.6,5.48A9.81,9.81,0,1,1,6.42.58,13.86,13.86,0,0,1,8.89,0Zm1,14.74H12.4a1.58,1.58,0,0,0,1.2-.49,4.68,4.68,0,0,0,.79-1A3.24,3.24,0,0,1,16,11.62h0a.66.66,0,0,0,.16-.68c-.12-.22-.3-.07-.44,0l-2.07.59a1.71,1.71,0,0,0-1,.56,1.5,1.5,0,0,1-1.27.54c-.81,0-.8,0-.78-.81,0-.25.11-.39.35-.35a1.14,1.14,0,0,0,1.13-.56c.19-.23.39-.47.56-.72a2.13,2.13,0,0,0,.09-2.53,7.55,7.55,0,0,0-1.91-2.07.45.45,0,0,1-.21-.41,5.77,5.77,0,0,0,0-.72A.49.49,0,0,0,10.11,4a.5.5,0,0,0-.51.48c0,.12,0,.24,0,.36s-.08.34-.33.26-.59-.16-.89-.24c-.07,0-.15-.07-.21,0s0,.16.05.23a11.15,11.15,0,0,1,.92,2.43,3.87,3.87,0,0,1,.09,1.59,5.76,5.76,0,0,1-.76,1.72c-.1.18-.37.36-.25.55s.4.08.61.08c.81,0,.85.05.77.85v0a.25.25,0,0,1-.29.27c-.39,0-.79,0-1.18,0a1,1,0,0,1-1-.89.33.33,0,0,0-.39-.32H4.53c-.29,0-.37.11-.35.39a3.2,3.2,0,0,0,3.1,3ZM6.23,10.23H7.3a.38.38,0,0,0,.35-.13,3,3,0,0,0,.57-1.5,5.89,5.89,0,0,0-.58-2.33c-.08-.19-.19-.18-.3,0s-.24.36-.35.55L5,9.88c-.18.29-.15.35.2.35Z"/></g></g></svg>