<svg width="124" height="34" viewBox="0 0 124 34" fill="none" xmlns="http://www.w3.org/2000/svg">
<path d="M7.848 23.192C5.72 23.192 4.016 22.792 2.736 21.992C1.456 21.176 0.816 19.936 0.816 18.272C0.816 17.392 0.968 16.72 1.272 16.256C1.576 15.792 2.024 15.56 2.616 15.56C3.048 15.56 3.4 15.672 3.672 15.896C3.944 16.12 4.08 16.408 4.08 16.76C4.08 17.08 4.056 17.36 4.008 17.6C4.008 17.664 3.992 17.776 3.96 17.936C3.944 18.096 3.936 18.264 3.936 18.44C3.936 19.16 4.296 19.696 5.016 20.048C5.752 20.4 6.776 20.576 8.088 20.576C9.448 20.576 10.512 20.336 11.28 19.856C12.048 19.36 12.432 18.672 12.432 17.792C12.432 17.248 12.256 16.784 11.904 16.4C11.552 16 11.112 15.672 10.584 15.416C10.056 15.144 9.312 14.816 8.352 14.432C7.12 13.952 6.112 13.496 5.328 13.064C4.56 12.632 3.896 12.048 3.336 11.312C2.792 10.56 2.52 9.632 2.52 8.528C2.52 7.376 2.824 6.352 3.432 5.456C4.056 4.56 4.944 3.864 6.096 3.368C7.264 2.872 8.632 2.624 10.2 2.624C11.368 2.624 12.44 2.8 13.416 3.152C14.392 3.488 15.168 4.008 15.744 4.712C16.336 5.416 16.632 6.28 16.632 7.304C16.632 8.312 16.48 9.072 16.176 9.584C15.872 10.096 15.424 10.352 14.832 10.352C14.416 10.352 14.064 10.224 13.776 9.968C13.504 9.712 13.368 9.408 13.368 9.056C13.368 8.752 13.392 8.472 13.44 8.216C13.488 7.736 13.512 7.432 13.512 7.304C13.512 6.632 13.184 6.12 12.528 5.768C11.872 5.416 11.056 5.24 10.08 5.24C8.704 5.24 7.648 5.496 6.912 6.008C6.192 6.504 5.832 7.208 5.832 8.12C5.832 8.728 6.016 9.248 6.384 9.68C6.768 10.112 7.24 10.472 7.8 10.76C8.36 11.048 9.144 11.392 10.152 11.792C11.368 12.288 12.344 12.736 13.08 13.136C13.816 13.536 14.44 14.08 14.952 14.768C15.48 15.456 15.744 16.304 15.744 17.312C15.744 19.2 15.024 20.656 13.584 21.68C12.16 22.688 10.248 23.192 7.848 23.192ZM20.8194 10.232C20.1474 10.232 19.6434 10.08 19.3074 9.776C18.9714 9.456 18.8034 9.016 18.8034 8.456C18.8034 7.896 19.0194 7.432 19.4514 7.064C19.8994 6.68 20.4514 6.488 21.1074 6.488C21.6994 6.488 22.1794 6.632 22.5474 6.92C22.9154 7.208 23.0994 7.616 23.0994 8.144C23.0994 8.784 22.8914 9.296 22.4754 9.68C22.0594 10.048 21.5074 10.232 20.8194 10.232ZM20.6274 23.12C19.5874 23.12 18.8274 22.752 18.3474 22.016C17.8834 21.28 17.6514 20.304 17.6514 19.088C17.6514 18.368 17.7394 17.448 17.9154 16.328C18.1074 15.192 18.3474 14.136 18.6354 13.16C18.7794 12.648 18.9714 12.296 19.2114 12.104C19.4514 11.912 19.8354 11.816 20.3634 11.816C21.1794 11.816 21.5874 12.088 21.5874 12.632C21.5874 13.032 21.4354 13.96 21.1314 15.416C20.7474 17.176 20.5554 18.368 20.5554 18.992C20.5554 19.472 20.6194 19.84 20.7474 20.096C20.8754 20.352 21.0914 20.48 21.3954 20.48C21.6834 20.48 22.0434 20.28 22.4754 19.88C22.9074 19.48 23.4834 18.848 24.2034 17.984C24.3954 17.76 24.6114 17.648 24.8514 17.648C25.0594 17.648 25.2194 17.744 25.3314 17.936C25.4594 18.128 25.5234 18.392 25.5234 18.728C25.5234 19.368 25.3714 19.864 25.0674 20.216C23.4834 22.152 22.0034 23.12 20.6274 23.12ZM32.6777 17.648C32.8857 17.648 33.0457 17.744 33.1577 17.936C33.2857 18.128 33.3497 18.392 33.3497 18.728C33.3497 19.368 33.1977 19.864 32.8937 20.216C32.2057 21.064 31.4537 21.76 30.6377 22.304C29.8377 22.848 28.9257 23.12 27.9017 23.12C26.4937 23.12 25.4457 22.48 24.7577 21.2C24.0857 19.92 23.7497 18.264 23.7497 16.232C23.7497 14.28 23.9977 12.056 24.4937 9.56C25.0057 7.064 25.7497 4.92 26.7257 3.128C27.7177 1.336 28.8937 0.439999 30.2537 0.439999C31.0217 0.439999 31.6217 0.799999 32.0537 1.52C32.5017 2.224 32.7257 3.24 32.7257 4.568C32.7257 6.472 32.1977 8.68 31.1417 11.192C30.0857 13.704 28.6537 16.192 26.8457 18.656C26.9577 19.312 27.1417 19.784 27.3977 20.072C27.6537 20.344 27.9897 20.48 28.4057 20.48C29.0617 20.48 29.6377 20.296 30.1337 19.928C30.6297 19.544 31.2617 18.896 32.0297 17.984C32.2217 17.76 32.4377 17.648 32.6777 17.648ZM29.7257 2.816C29.3577 2.816 28.9417 3.48 28.4777 4.808C28.0137 6.136 27.6057 7.784 27.2537 9.752C26.9017 11.72 26.7097 13.608 26.6777 15.416C27.8137 13.544 28.7177 11.672 29.3897 9.8C30.0617 7.912 30.3977 6.192 30.3977 4.64C30.3977 3.424 30.1737 2.816 29.7257 2.816ZM40.5058 17.648C40.7138 17.648 40.8738 17.744 40.9858 17.936C41.1138 18.128 41.1778 18.392 41.1778 18.728C41.1778 19.368 41.0258 19.864 40.7218 20.216C40.0338 21.064 39.2818 21.76 38.4658 22.304C37.6658 22.848 36.7538 23.12 35.7298 23.12C34.3218 23.12 33.2738 22.48 32.5858 21.2C31.9138 19.92 31.5778 18.264 31.5778 16.232C31.5778 14.28 31.8258 12.056 32.3218 9.56C32.8338 7.064 33.5778 4.92 34.5538 3.128C35.5458 1.336 36.7218 0.439999 38.0818 0.439999C38.8498 0.439999 39.4498 0.799999 39.8818 1.52C40.3298 2.224 40.5538 3.24 40.5538 4.568C40.5538 6.472 40.0258 8.68 38.9698 11.192C37.9138 13.704 36.4818 16.192 34.6738 18.656C34.7858 19.312 34.9698 19.784 35.2258 20.072C35.4818 20.344 35.8178 20.48 36.2338 20.48C36.8898 20.48 37.4658 20.296 37.9618 19.928C38.4578 19.544 39.0898 18.896 39.8578 17.984C40.0498 17.76 40.2658 17.648 40.5058 17.648ZM37.5538 2.816C37.1858 2.816 36.7698 3.48 36.3058 4.808C35.8418 6.136 35.4338 7.784 35.0818 9.752C34.7298 11.72 34.5378 13.608 34.5058 15.416C35.6418 13.544 36.5458 11.672 37.2178 9.8C37.8898 7.912 38.2258 6.192 38.2258 4.64C38.2258 3.424 38.0018 2.816 37.5538 2.816ZM47.6379 11.816C48.0059 11.816 48.2619 11.864 48.4059 11.96C48.5499 12.056 48.6219 12.216 48.6219 12.44C48.6219 12.824 48.4139 14.192 47.9979 16.544C47.6299 18.8 47.4139 20.136 47.3499 20.552C46.7579 24.664 45.9419 27.92 44.9019 30.32C43.8619 32.72 42.4779 33.92 40.7499 33.92C39.9339 33.92 39.2699 33.664 38.7579 33.152C38.2459 32.656 37.9899 32 37.9899 31.184C37.9899 30.432 38.1579 29.664 38.4939 28.88C38.8459 28.096 39.4859 27.192 40.4139 26.168C41.3579 25.16 42.6859 24 44.3979 22.688L44.4699 22.136C44.5819 21.544 44.7099 20.696 44.8539 19.592C44.5339 20.744 44.0859 21.624 43.5099 22.232C42.9339 22.824 42.3259 23.12 41.6859 23.12C40.9659 23.12 40.3739 22.792 39.9099 22.136C39.4619 21.464 39.2379 20.632 39.2379 19.64C39.2379 18.44 39.3179 17.344 39.4779 16.352C39.6379 15.344 39.9019 14.28 40.2699 13.16C40.4299 12.68 40.6539 12.336 40.9419 12.128C41.2299 11.92 41.6859 11.816 42.3099 11.816C42.6619 11.816 42.9019 11.872 43.0299 11.984C43.1739 12.096 43.2459 12.264 43.2459 12.488C43.2459 12.616 43.1579 13.048 42.9819 13.784C42.8219 14.376 42.6939 14.912 42.5979 15.392C42.4699 16.048 42.3579 16.68 42.2619 17.288C42.1659 17.88 42.1179 18.368 42.1179 18.752C42.1179 19.36 42.2859 19.664 42.6219 19.664C42.8619 19.664 43.1579 19.424 43.5099 18.944C43.8779 18.464 44.2619 17.736 44.6619 16.76C45.0779 15.784 45.4779 14.584 45.8619 13.16C45.9899 12.68 46.1819 12.336 46.4379 12.128C46.7099 11.92 47.1099 11.816 47.6379 11.816ZM41.0139 31.592C41.4139 31.592 41.8619 31.128 42.3579 30.2C42.8539 29.272 43.3499 27.728 43.8459 25.568C42.6139 26.608 41.7179 27.552 41.1579 28.4C40.6139 29.264 40.3419 30.016 40.3419 30.656C40.3419 30.928 40.3899 31.152 40.4859 31.328C40.5979 31.504 40.7739 31.592 41.0139 31.592ZM66.0908 23.12C64.1868 23.12 62.5308 22.776 61.1228 22.088C59.7148 21.384 58.6348 20.392 57.8828 19.112C57.1308 17.832 56.7548 16.344 56.7548 14.648C56.7548 12.296 57.1948 10.208 58.0748 8.384C58.9708 6.56 60.1788 5.152 61.6988 4.16C63.2188 3.152 64.9068 2.648 66.7628 2.648C68.4908 2.648 69.8028 3.096 70.6988 3.992C71.5948 4.872 72.0428 6.04 72.0428 7.496C72.0428 8.472 71.8668 9.256 71.5148 9.848C71.1788 10.44 70.6908 10.736 70.0508 10.736C69.6028 10.736 69.2508 10.632 68.9948 10.424C68.7388 10.216 68.6108 9.912 68.6108 9.512C68.6108 9.368 68.6428 9.104 68.7068 8.72C68.8028 8.24 68.8508 7.856 68.8508 7.568C68.8508 6.112 68.0748 5.384 66.5228 5.384C65.4668 5.384 64.4588 5.728 63.4988 6.416C62.5388 7.104 61.7628 8.12 61.1708 9.464C60.5788 10.792 60.2828 12.376 60.2828 14.216C60.2828 16.136 60.8188 17.624 61.8908 18.68C62.9628 19.72 64.5468 20.24 66.6428 20.24C67.6828 20.24 68.7308 20.112 69.7868 19.856C70.8588 19.584 72.0428 19.176 73.3388 18.632C73.5788 18.536 73.7788 18.488 73.9388 18.488C74.1948 18.488 74.3868 18.584 74.5148 18.776C74.6428 18.968 74.7068 19.216 74.7068 19.52C74.7068 20.496 74.1788 21.216 73.1228 21.68C71.9868 22.176 70.8028 22.544 69.5708 22.784C68.3548 23.008 67.1948 23.12 66.0908 23.12ZM81.9199 17.648C82.1279 17.648 82.2879 17.744 82.3999 17.936C82.5279 18.128 82.5919 18.392 82.5919 18.728C82.5919 19.368 82.4399 19.864 82.1359 20.216C81.4479 21.064 80.6959 21.76 79.8799 22.304C79.0799 22.848 78.1679 23.12 77.1439 23.12C75.7359 23.12 74.6879 22.48 73.9999 21.2C73.3279 19.92 72.9919 18.264 72.9919 16.232C72.9919 14.28 73.2399 12.056 73.7359 9.56C74.2479 7.064 74.9919 4.92 75.9679 3.128C76.9599 1.336 78.1359 0.439999 79.4959 0.439999C80.2639 0.439999 80.8639 0.799999 81.2959 1.52C81.7439 2.224 81.9679 3.24 81.9679 4.568C81.9679 6.472 81.4399 8.68 80.3839 11.192C79.3279 13.704 77.8959 16.192 76.0879 18.656C76.1999 19.312 76.3839 19.784 76.6399 20.072C76.8959 20.344 77.2319 20.48 77.6479 20.48C78.3039 20.48 78.8799 20.296 79.3759 19.928C79.8719 19.544 80.5039 18.896 81.2719 17.984C81.4639 17.76 81.6799 17.648 81.9199 17.648ZM78.9679 2.816C78.5999 2.816 78.1839 3.48 77.7199 4.808C77.2559 6.136 76.8479 7.784 76.4959 9.752C76.1439 11.72 75.9519 13.608 75.9199 15.416C77.0559 13.544 77.9599 11.672 78.6319 9.8C79.3039 7.912 79.6399 6.192 79.6399 4.64C79.6399 3.424 79.4159 2.816 78.9679 2.816ZM92.892 15.632C93.1 15.632 93.26 15.736 93.372 15.944C93.484 16.152 93.54 16.416 93.54 16.736C93.54 17.504 93.308 17.96 92.844 18.104C91.884 18.44 90.828 18.632 89.676 18.68C89.372 20.024 88.772 21.104 87.876 21.92C86.98 22.72 85.964 23.12 84.828 23.12C83.868 23.12 83.044 22.888 82.356 22.424C81.684 21.96 81.172 21.344 80.82 20.576C80.468 19.808 80.292 18.976 80.292 18.08C80.292 16.864 80.524 15.784 80.988 14.84C81.452 13.88 82.092 13.136 82.908 12.608C83.724 12.064 84.628 11.792 85.62 11.792C86.836 11.792 87.812 12.216 88.548 13.064C89.3 13.896 89.74 14.928 89.868 16.16C90.62 16.112 91.516 15.952 92.556 15.68C92.684 15.648 92.796 15.632 92.892 15.632ZM85.02 20.576C85.532 20.576 85.972 20.368 86.34 19.952C86.724 19.536 86.98 18.936 87.108 18.152C86.612 17.816 86.228 17.376 85.956 16.832C85.7 16.288 85.572 15.712 85.572 15.104C85.572 14.848 85.596 14.592 85.644 14.336H85.524C84.884 14.336 84.348 14.648 83.916 15.272C83.5 15.88 83.292 16.744 83.292 17.864C83.292 18.744 83.46 19.416 83.796 19.88C84.148 20.344 84.556 20.576 85.02 20.576ZM93.9281 23.12C93.2081 23.12 92.6161 22.792 92.1521 22.136C91.7041 21.464 91.4801 20.632 91.4801 19.64C91.4801 18.44 91.5601 17.344 91.7201 16.352C91.8801 15.344 92.1441 14.28 92.5121 13.16C92.6721 12.68 92.8961 12.336 93.1841 12.128C93.4721 11.92 93.9281 11.816 94.5521 11.816C94.9041 11.816 95.1441 11.872 95.2721 11.984C95.4161 12.096 95.4881 12.264 95.4881 12.488C95.4881 12.616 95.4001 13.048 95.2241 13.784C95.0641 14.376 94.9361 14.912 94.8401 15.392C94.5201 17.072 94.3601 18.192 94.3601 18.752C94.3601 19.088 94.4001 19.328 94.4801 19.472C94.5601 19.6 94.6881 19.664 94.8641 19.664C95.1041 19.664 95.4001 19.424 95.7521 18.944C96.1201 18.464 96.5041 17.736 96.9041 16.76C97.3201 15.784 97.7201 14.584 98.1041 13.16C98.2321 12.68 98.4241 12.336 98.6801 12.128C98.9521 11.92 99.3521 11.816 99.8801 11.816C100.248 11.816 100.504 11.864 100.648 11.96C100.792 12.04 100.864 12.2 100.864 12.44C100.864 12.84 100.664 13.936 100.264 15.728C99.8161 17.776 99.5921 19.04 99.5921 19.52C99.5921 19.824 99.6561 20.064 99.7841 20.24C99.9121 20.4 100.08 20.48 100.288 20.48C100.608 20.48 100.984 20.288 101.416 19.904C101.864 19.504 102.456 18.864 103.192 17.984C103.384 17.76 103.6 17.648 103.84 17.648C104.048 17.648 104.208 17.744 104.32 17.936C104.448 18.128 104.512 18.392 104.512 18.728C104.512 19.368 104.36 19.864 104.056 20.216C103.368 21.064 102.624 21.76 101.824 22.304C101.04 22.848 100.144 23.12 99.1361 23.12C98.3681 23.12 97.8001 22.824 97.4321 22.232C97.0801 21.64 96.9041 20.808 96.9041 19.736C96.6321 20.824 96.2241 21.664 95.6801 22.256C95.1361 22.832 94.5521 23.12 93.9281 23.12ZM116.198 17.648C116.406 17.648 116.566 17.744 116.678 17.936C116.806 18.128 116.87 18.392 116.87 18.728C116.87 19.368 116.718 19.864 116.414 20.216C115.758 21.016 115.038 21.704 114.254 22.28C113.47 22.84 112.694 23.12 111.926 23.12C110.71 23.12 109.782 22.408 109.142 20.984C108.47 21.832 107.878 22.4 107.366 22.688C106.87 22.976 106.286 23.12 105.614 23.12C104.638 23.12 103.83 22.76 103.19 22.04C102.566 21.304 102.254 20.352 102.254 19.184C102.254 17.904 102.526 16.72 103.07 15.632C103.614 14.528 104.358 13.632 105.302 12.944C106.262 12.24 107.334 11.824 108.518 11.696C108.822 8.592 109.398 5.944 110.246 3.752C111.11 1.544 112.238 0.439999 113.63 0.439999C114.318 0.439999 114.886 0.751999 115.334 1.376C115.798 2 116.03 2.944 116.03 4.208C116.03 6 115.59 8.096 114.71 10.496C113.83 12.896 112.654 15.36 111.182 17.888C111.246 18.816 111.382 19.48 111.59 19.88C111.814 20.28 112.094 20.48 112.43 20.48C112.862 20.48 113.302 20.288 113.75 19.904C114.198 19.52 114.798 18.88 115.55 17.984C115.742 17.76 115.958 17.648 116.198 17.648ZM113.366 2.792C113.062 2.792 112.758 3.336 112.454 4.424C112.15 5.496 111.886 6.904 111.662 8.648C111.454 10.392 111.302 12.216 111.206 14.12C112.998 10.216 113.894 7.08 113.894 4.712C113.894 4.104 113.838 3.632 113.726 3.296C113.63 2.96 113.51 2.792 113.366 2.792ZM106.454 20.696C106.758 20.696 107.062 20.576 107.366 20.336C107.67 20.08 108.054 19.616 108.518 18.944C108.358 18.08 108.278 17.112 108.278 16.04C108.278 15.656 108.294 15.032 108.326 14.168C107.446 14.44 106.71 15.032 106.118 15.944C105.542 16.84 105.254 17.84 105.254 18.944C105.254 20.112 105.654 20.696 106.454 20.696ZM119.382 23.648C118.55 23.648 117.91 23.456 117.462 23.072C117.03 22.688 116.814 22.256 116.814 21.776C116.814 21.36 116.966 21 117.27 20.696C117.574 20.392 118.022 20.24 118.614 20.24C118.822 20.24 119.062 20.264 119.334 20.312C119.622 20.344 119.838 20.368 119.982 20.384C119.966 19.968 119.87 19.576 119.694 19.208C119.534 18.84 119.326 18.488 119.07 18.152C118.814 17.8 118.574 17.496 118.35 17.24C117.854 18.184 117.358 18.968 116.862 19.592C116.382 20.216 115.854 20.808 115.278 21.368C114.99 21.656 114.686 21.8 114.366 21.8C114.11 21.8 113.902 21.712 113.742 21.536C113.582 21.344 113.502 21.112 113.502 20.84C113.502 20.52 113.614 20.224 113.838 19.952L114.15 19.568C115.03 18.48 115.694 17.584 116.142 16.88C116.43 16.416 116.718 15.864 117.006 15.224C117.31 14.584 117.702 13.712 118.182 12.608C118.486 11.904 119.118 11.552 120.078 11.552C120.526 11.552 120.838 11.592 121.014 11.672C121.19 11.752 121.278 11.88 121.278 12.056C121.278 12.152 121.246 12.304 121.182 12.512C121.118 12.72 121.03 12.928 120.918 13.136C120.63 13.712 120.486 14.2 120.486 14.6C120.486 14.84 120.566 15.104 120.726 15.392C120.902 15.68 121.166 16.04 121.518 16.472C122.03 17.144 122.414 17.72 122.67 18.2C122.942 18.664 123.078 19.176 123.078 19.736C123.078 20.408 122.918 21.048 122.598 21.656C122.294 22.248 121.862 22.728 121.302 23.096C120.742 23.464 120.102 23.648 119.382 23.648Z" fill="white"/>
</svg>
