<svg xmlns="http://www.w3.org/2000/svg" viewBox="0 0 21.95 18"><defs><style>.cls-1{fill:#fff;}</style></defs><g id="Layer_2" data-name="Layer 2"><g id="Layer_1-2" data-name="Layer 1"><path class="cls-1" d="M0,15.91A9.2,9.2,0,0,0,6.55,14.1,6.31,6.31,0,0,1,5.92,14a4.52,4.52,0,0,1-3.39-2.78c-.14-.3-.09-.35.25-.3a3.94,3.94,0,0,0,1.45-.1A4.68,4.68,0,0,1,2.16,9.59a4.62,4.62,0,0,1-1.32-3c0-.22.06-.26.25-.16a3.6,3.6,0,0,0,.9.33c.25,0,.5.08.82.13A5.59,5.59,0,0,1,1.56,5.49,4.34,4.34,0,0,1,1.4,1.05c.12-.25.21-.14.33,0A12.69,12.69,0,0,0,8.12,5.12a12.72,12.72,0,0,0,2.3.4c.33,0,.34,0,.3-.3A4.52,4.52,0,0,1,14.48.07a4.38,4.38,0,0,1,3.86,1.18.46.46,0,0,0,.48.12,9.71,9.71,0,0,0,2.3-.89c.07,0,.16-.12.22-.07s0,.17,0,.25a4.46,4.46,0,0,1-1.38,1.88,1.26,1.26,0,0,0-.24.22A9.29,9.29,0,0,0,22,2.19a3.82,3.82,0,0,1-.69,1,7.69,7.69,0,0,1-1.17,1.11.74.74,0,0,0-.33.68,12,12,0,0,1-.48,3.61,13.16,13.16,0,0,1-3.54,6,12.06,12.06,0,0,1-6.66,3.28A13,13,0,0,1,2,17a12.27,12.27,0,0,1-1.77-.9A.46.46,0,0,1,0,15.91Z"/></g></g></svg>